# xmcd
# 
# Track frame offsets:
#     183
#     18778
#     33653
#     51308
#     69025
#     90460
#     108718
#     123740
#     138563
#     153318
#     169690
#     192958
#     209070
#     222938
#     236403
# 
# Disc length: 3440
# 
# Revision: 10
# Processed by: cddbd v1.5.2PL0 Copyright (c) Steve Scherf et al.
# Submitted via: fre:ac v1.0.17
# 
DISCID=d60d6e0f
DTITLE=Alain Bashung - Bashung
DYEAR=1993
DGENRE=Rock
TTITLE0=Bijou bijou
TTITLE1=Vertige de l'amour
TTITLE2=Rebel
TTITLE3=Gaby oh gaby
TTITLE4=Elégance
TTITLE5=S.O.S. amor
TTITLE6=What's in a bird
TTITLE7=C'est comment qu'on freine
TTITLE8=Lavabo
TTITLE9=Malédiction
TTITLE10=Les mots bleus
TTITLE11=Etrange été
TTITLE12=Bombez!
TTITLE13=Osez Joséphine
TTITLE14=Madame rêve
EXTD=
EXTT0=
EXTT1=
EXTT2=
EXTT3=
EXTT4=
EXTT5=
EXTT6=
EXTT7=
EXTT8=
EXTT9=
EXTT10=
EXTT11=
EXTT12=
EXTT13=
EXTT14=
PLAYORDER=
